<svg xmlns="http://www.w3.org/2000/svg" viewBox="0 0 385.99 160.03"><defs><style>.cls-1{isolation:isolate;}.cls-2{fill:#477fcc;}.cls-3{fill:#8dc630;}</style></defs><g id="Rectangle_1859" data-name="Rectangle 1859" class="cls-1"><g id="Rectangle_1859-2" data-name="Rectangle 1859"><path class="cls-2" d="M195.71,74.82H205V65.56h-9.25ZM184.27,63.51h9.25V54.25h-9.25Zm0,11.31h9.25V65.56h-9.25Zm11.44-11.31H205V54.25h-9.25ZM194.54.18l-.25.3L194,.18,103,77.52H137.8l56.49-48,89,75.65h34.78Z" transform="translate(-0.08 -0.18)"/></g></g><g id="Rectangle_1859_copy" data-name="Rectangle 1859 copy" class="cls-1"><g id="Rectangle_1859_copy-2" data-name="Rectangle 1859 copy"><polygon class="cls-3" points="355.44 78.67 355.44 56.26 356.75 56.26 356.75 47.05 336.12 47.05 336.12 56.26 337.44 56.26 337.44 63.38 294.56 26.95 294.37 27.18 294.18 26.95 264.89 51.83 278.06 62.97 294.37 49.12 359.71 104.63 386 104.63 355.44 78.67"/></g></g><g id="Edinburgh" class="cls-1"><g id="Edinburgh-2" data-name="Edinburgh"><path class="cls-2" d="M.08,159.74H29.17v-9.27H11.65V140.05H27.14v-8.93H11.65v-9.61H29.17v-9.27H.08Zm54.4-47.5H36.68v47.5h17.8c15.16,0,24.9-9.68,24.9-23.75S69.64,112.24,54.48,112.24Zm-.74,37.48H48.25v-27.6h5.49c8.72,0,13.87,5.14,13.87,13.87S62.46,149.72,53.74,149.72Zm32.14,10H97.45v-47.5H85.88Zm50.88-18.07-19.35-29.43H105.84v47.5h11.57v-29.3l19.35,29.3h11.57v-47.5H136.76Zm48.72-6.29a10.78,10.78,0,0,0,8.05-10.83c0-7.51-5.75-12.31-15.42-12.31H156.72v47.5h22.13c10,0,15.77-5.08,15.77-12.93A11.52,11.52,0,0,0,185.48,135.38ZM168.3,121.51h7.57c3.79,0,5.89,1.76,5.89,5s-2.1,4.93-5.89,4.93H168.3Zm8.52,28.89H168.3V139.91h8.39c3.85,0,6.22,2,6.22,5.35S180.68,150.4,176.82,150.4Zm52.51-9.74c0,5.61-2.91,8.86-8.39,8.86s-8.25-3.25-8.25-8.86V112.24H201.11v28.35c0,13.13,8.6,19.62,19.63,19.62s20.16-6.49,20.16-19.62V112.24H229.33Zm56.57-13.47c0-8.25-5.82-15-17.46-15H249v47.5h11.57V141.81h2.78l9.88,17.93h13.06l-11-18.81C282.65,138.76,285.9,133.15,285.9,127.19Zm-18.13,6.43h-7.18V121.85h7.18c4.33,0,6.36,2.3,6.36,5.82C274.13,131.39,272.1,133.62,267.77,133.62Zm45.33,7.85h14.69c-1.76,5.34-5.76,8.39-11.51,8.39-8.32,0-13.33-5.14-13.33-13.94,0-8.25,4.94-13.53,12.39-13.53,4.33,0,7.57,1.69,9.33,4.87h12.79c-2.5-9.74-10.76-15.56-22.12-15.56-14.21,0-24.16,10-24.16,24.22s10,24.16,24.22,24.16c12.52,0,20.44-8.19,22.87-16.38V132.94H313.1Zm61.17-29.23v18.61h-18V112.24H344.7v47.5h11.57V140.18h18v19.56h11.57v-47.5Z" transform="translate(-0.08 -0.18)"/></g></g><g id="Sell_Property" data-name="Sell Property" class="cls-1"><g id="Sell_Property-2" data-name="Sell Property"><path class="cls-3" d="M5.69,90a1.84,1.84,0,0,1,2.13-1.89,2.24,2.24,0,0,1,2.39,2.16h5.46c-.2-4-3.24-6.21-7.76-6.21C3.56,84,.34,86.23.34,90.16c-.06,7.35,10.31,5.28,10.31,9.12,0,1.22-.94,2-2.42,2a2.37,2.37,0,0,1-2.57-2.36H.28c.15,4.2,3.64,6.41,8.1,6.41,4.84,0,7.56-2.89,7.56-6.38C15.94,92,5.69,93.58,5.69,90ZM19,105.07H31.75v-4H24.09V96.48h6.77v-3.9H24.09v-4.2h7.66v-4H19Zm21-20.73H35v20.73H46.69v-3.89H40.08Zm14.09,0H49.12v20.73H60.78v-3.89H54.17Zm23.48,0H69.47v20.73h5V97.63h3.13c5.29,0,7.62-3.19,7.62-6.62C85.27,87.2,82.73,84.34,77.65,84.34Zm-.38,9.27H74.52v-5.2h2.75c2,0,2.86,1,2.86,2.6S79.28,93.61,77.27,93.61ZM104,90.87c0-3.61-2.54-6.53-7.62-6.53H87.9v20.73h5V97.25h1.22l4.31,7.82h5.7l-4.79-8.21A6,6,0,0,0,104,90.87Zm-7.91,2.8H93V88.53h3.14c1.89,0,2.77,1,2.77,2.54S98,93.67,96.09,93.67ZM117,84a10.62,10.62,0,1,0,10.61,10.61A10.4,10.4,0,0,0,117,84Zm0,16.63c-3.37,0-5.49-2.39-5.49-6s2.12-6,5.49-6,5.47,2.33,5.47,6S120.28,100.67,117,100.67Zm21.6-16.33h-8.19v20.73h5.06V97.63h3.13c5.29,0,7.62-3.19,7.62-6.62C146.19,87.2,143.65,84.34,138.57,84.34Zm-.39,9.27h-2.74v-5.2h2.74c2,0,2.87,1,2.87,2.6S140.19,93.61,138.18,93.61Zm10.64,11.46h12.7v-4h-7.65V96.48h6.76v-3.9h-6.76v-4.2h7.65v-4h-12.7Zm32.08-14.2c0-3.61-2.54-6.53-7.62-6.53H164.8v20.73h5V97.25h1.21l4.32,7.82h5.7l-4.79-8.21A6,6,0,0,0,180.9,90.87ZM173,93.67h-3.13V88.53H173c1.89,0,2.78,1,2.78,2.54S174.87,93.67,173,93.67Zm10-5.29h5.49v16.69h5V88.38H199v-4h-16Zm30.69-4-4,8.68-4-8.68H199.9l7.17,13.88v6.85h5.06V98.22l7.17-13.88Z" transform="translate(-0.08 -0.18)"/></g></g></svg>